<?xml version="1.0" encoding="UTF-8" standalone="no"?>
<!-- Created with Inkscape (http://www.inkscape.org/) -->

<svg
   xmlns:dc="http://purl.org/dc/elements/1.1/"
   xmlns:cc="http://creativecommons.org/ns#"
   xmlns:rdf="http://www.w3.org/1999/02/22-rdf-syntax-ns#"
   xmlns:svg="http://www.w3.org/2000/svg"
   xmlns="http://www.w3.org/2000/svg"
   xmlns:xlink="http://www.w3.org/1999/xlink"
   xmlns:sodipodi="http://sodipodi.sourceforge.net/DTD/sodipodi-0.dtd"
   xmlns:inkscape="http://www.inkscape.org/namespaces/inkscape"
   width="256"
   height="256"
   id="svg2"
   version="1.1"
   inkscape:version="0.48.2 r9819"
   sodipodi:docname="icon_48.svg"
   inkscape:export-filename="L:\projects\Adeptus\Adeptus\Icon\icon_48.png"
   inkscape:export-xdpi="90"
   inkscape:export-ydpi="90">
  <defs
     id="defs4">
    <linearGradient
       id="linearGradient4810">
      <stop
         style="stop-color:#2c2623;stop-opacity:1;"
         offset="0"
         id="stop4812" />
      <stop
         style="stop-color:#120f0e;stop-opacity:1;"
         offset="1"
         id="stop4814" />
    </linearGradient>
    <linearGradient
       id="linearGradient4036">
      <stop
         style="stop-color:#ffffff;stop-opacity:1;"
         offset="0"
         id="stop4038" />
      <stop
         id="stop4046"
         offset="0.80737662"
         style="stop-color:#e7e7e7;stop-opacity:1;" />
      <stop
         style="stop-color:#b5b5b5;stop-opacity:1;"
         offset="1"
         id="stop4040" />
    </linearGradient>
    <linearGradient
       id="linearGradient3972">
      <stop
         style="stop-color:#161519;stop-opacity:1;"
         offset="0"
         id="stop3974" />
      <stop
         style="stop-color:#4a5054;stop-opacity:1;"
         offset="1"
         id="stop3976" />
    </linearGradient>
    <linearGradient
       id="linearGradient3944">
      <stop
         style="stop-color:#403836;stop-opacity:1;"
         offset="0"
         id="stop3946" />
      <stop
         style="stop-color:#625856;stop-opacity:1;"
         offset="1"
         id="stop3948" />
    </linearGradient>
    <linearGradient
       id="linearGradient3936">
      <stop
         style="stop-color:#57c11d;stop-opacity:1;"
         offset="0"
         id="stop3938" />
      <stop
         style="stop-color:#419316;stop-opacity:1;"
         offset="1"
         id="stop3940" />
    </linearGradient>
    <linearGradient
       id="linearGradient3928">
      <stop
         style="stop-color:#e93a23;stop-opacity:1;"
         offset="0"
         id="stop3930" />
      <stop
         style="stop-color:#c8230d;stop-opacity:1;"
         offset="1"
         id="stop3932" />
    </linearGradient>
    <linearGradient
       id="linearGradient3920">
      <stop
         style="stop-color:#e02d17;stop-opacity:1;"
         offset="0"
         id="stop3922" />
      <stop
         style="stop-color:#da554b;stop-opacity:1;"
         offset="1"
         id="stop3924" />
    </linearGradient>
    <linearGradient
       id="linearGradient3910">
      <stop
         style="stop-color:#28272f;stop-opacity:1;"
         offset="0"
         id="stop3912" />
      <stop
         style="stop-color:#454851;stop-opacity:1;"
         offset="1"
         id="stop3914" />
    </linearGradient>
    <linearGradient
       inkscape:collect="always"
       xlink:href="#linearGradient3910"
       id="linearGradient3916"
       x1="160.60738"
       y1="98.735588"
       x2="98.587791"
       y2="69.628448"
       gradientUnits="userSpaceOnUse"
       gradientTransform="matrix(1.1253594,0,0,1.1253494,-3.267285,-20.078463)" />
    <linearGradient
       inkscape:collect="always"
       xlink:href="#linearGradient3920"
       id="linearGradient3926"
       x1="87.274315"
       y1="97.620827"
       x2="48.17997"
       y2="91.906548"
       gradientUnits="userSpaceOnUse" />
    <linearGradient
       inkscape:collect="always"
       xlink:href="#linearGradient3928"
       id="linearGradient3934"
       x1="107.19154"
       y1="91.515594"
       x2="200.13577"
       y2="159.19417"
       gradientUnits="userSpaceOnUse" />
    <linearGradient
       inkscape:collect="always"
       xlink:href="#linearGradient3936"
       id="linearGradient3942"
       x1="58.282486"
       y1="210.18805"
       x2="89.986"
       y2="227.68806"
       gradientUnits="userSpaceOnUse" />
    <linearGradient
       inkscape:collect="always"
       xlink:href="#linearGradient3944"
       id="linearGradient3950"
       x1="135.23579"
       y1="147.19356"
       x2="60.266979"
       y2="117.90784"
       gradientUnits="userSpaceOnUse" />
    <linearGradient
       inkscape:collect="always"
       xlink:href="#linearGradient3910"
       id="linearGradient3958"
       x1="150.72144"
       y1="64.426323"
       x2="147.1993"
       y2="8.7120361"
       gradientUnits="userSpaceOnUse" />
    <linearGradient
       inkscape:collect="always"
       xlink:href="#linearGradient3972"
       id="linearGradient3978"
       x1="165.32887"
       y1="40.683109"
       x2="150.28177"
       y2="31.276062"
       gradientUnits="userSpaceOnUse" />
    <linearGradient
       inkscape:collect="always"
       xlink:href="#linearGradient3910"
       id="linearGradient3986"
       x1="153.55428"
       y1="32.69659"
       x2="208.33398"
       y2="68.746407"
       gradientUnits="userSpaceOnUse" />
    <filter
       inkscape:collect="always"
       id="filter4002">
      <feGaussianBlur
         inkscape:collect="always"
         stdDeviation="1.7232693"
         id="feGaussianBlur4004" />
    </filter>
    <filter
       inkscape:collect="always"
       id="filter4020"
       x="-0.23766231"
       width="1.4753246"
       y="-0.14485489"
       height="1.2897098">
      <feGaussianBlur
         inkscape:collect="always"
         stdDeviation="3.185636"
         id="feGaussianBlur4022" />
    </filter>
    <filter
       inkscape:collect="always"
       id="filter4032"
       x="-0.11224019"
       width="1.2244804"
       y="-0.12891246"
       height="1.2578249">
      <feGaussianBlur
         inkscape:collect="always"
         stdDeviation="3.9225208"
         id="feGaussianBlur4034" />
    </filter>
    <radialGradient
       inkscape:collect="always"
       xlink:href="#linearGradient4036"
       id="radialGradient4044"
       cx="98.554138"
       cy="155.98552"
       fx="98.554138"
       fy="155.98552"
       r="17.488266"
       gradientUnits="userSpaceOnUse"
       gradientTransform="matrix(1.2463065,-0.32503275,0.28971921,1.1109199,-69.466521,14.731438)" />
    <linearGradient
       inkscape:collect="always"
       xlink:href="#linearGradient4810"
       id="linearGradient4816"
       x1="135.5401"
       y1="224.94885"
       x2="134.62971"
       y2="217.27026"
       gradientUnits="userSpaceOnUse" />
    <linearGradient
       inkscape:collect="always"
       xlink:href="#linearGradient4810"
       id="linearGradient4824"
       x1="200.90874"
       y1="202.75308"
       x2="196.58211"
       y2="196.86023"
       gradientUnits="userSpaceOnUse" />
    <linearGradient
       inkscape:collect="always"
       xlink:href="#linearGradient4810"
       id="linearGradient4832"
       x1="229.56178"
       y1="184.49541"
       x2="224.57085"
       y2="180.38828"
       gradientUnits="userSpaceOnUse" />
    <linearGradient
       inkscape:collect="always"
       xlink:href="#linearGradient4810"
       id="linearGradient4840"
       x1="31.420921"
       y1="197.22743"
       x2="34.43877"
       y2="192.99742"
       gradientUnits="userSpaceOnUse" />
  </defs>
  <sodipodi:namedview
     id="base"
     pagecolor="#ffffff"
     bordercolor="#666666"
     borderopacity="1.0"
     inkscape:pageopacity="0.0"
     inkscape:pageshadow="2"
     inkscape:zoom="2.8"
     inkscape:cx="64.529643"
     inkscape:cy="120.49076"
     inkscape:document-units="px"
     inkscape:current-layer="layer4"
     showgrid="false"
     inkscape:window-width="1920"
     inkscape:window-height="1138"
     inkscape:window-x="-8"
     inkscape:window-y="-8"
     inkscape:window-maximized="1" />
  <metadata
     id="metadata7">
    <rdf:RDF>
      <cc:Work
         rdf:about="">
        <dc:format>image/svg+xml</dc:format>
        <dc:type
           rdf:resource="http://purl.org/dc/dcmitype/StillImage" />
        <dc:title></dc:title>
      </cc:Work>
    </rdf:RDF>
  </metadata>
  <g
     inkscape:groupmode="layer"
     id="layer6"
     inkscape:label="leaf">
    <path
       style="fill:url(#linearGradient3942);fill-opacity:1;stroke:none;stroke-width:0.99999994000000003px;stroke-linecap:butt;stroke-linejoin:miter;stroke-opacity:1"
       d="m 33.70881,182.20307 c -5.27838,31.29163 9.144302,48.49519 15.071778,71.74102 C 108.583,235.1 170.22697,228.13587 216.98164,198.27949 c 56.56603,-36.12168 35.56923,-77.4568 5.6268,-91.63559 C 149.90207,72.214918 46.886739,104.08087 33.70881,182.20307 z"
       id="path3908"
       inkscape:connector-curvature="0"
       sodipodi:nodetypes="scsss" />
    <path
       sodipodi:nodetypes="scscs"
       inkscape:connector-curvature="0"
       id="path3988"
       d="m 162.25072,210.73987 c -30.11655,10.00104 -69.229176,19.15745 -112.712518,42.44661 42.480984,-16.34409 119.370058,-25.38981 166.124728,-55.24619 56.56603,-36.12168 35.53859,-72.89842 8.62662,-88.84498 34.87487,37.03932 21.2169,73.99718 -62.03883,101.64456 z"
       style="fill:#74e139;fill-opacity:0.40182647;stroke:none;filter:url(#filter4002)" />
  </g>
  <g
     inkscape:groupmode="layer"
     id="layer5"
     inkscape:label="legs"
     style="display:inline">
    <path
       style="fill:url(#linearGradient4840);fill-opacity:1;stroke:none;stroke-width:0.99999994000000003px;stroke-linecap:butt;stroke-linejoin:round;stroke-opacity:1"
       d="m 34.613117,191.09535 c -10.584809,9.68629 -5.557332,17.55412 -1.858852,20.59791 -3.369724,-8.6844 0.07826,-14.65781 3.767944,-19.29171 z"
       id="path3905"
       inkscape:connector-curvature="0"
       sodipodi:nodetypes="cccc" />
    <path
       style="fill:#2c2623;fill-opacity:1;stroke:none;stroke-width:0.99999994000000003px;stroke-linecap:butt;stroke-linejoin:miter;stroke-opacity:1"
       d="m 128.2445,196.8915 c 1.3423,7.08677 -1.87365,18.5629 4.19189,21.10138 l 4.4761,-0.28419 c 4.4074,-3.20033 -0.62335,-14.79009 -0.9947,-22.23815 z"
       id="path3893"
       inkscape:connector-curvature="0"
       sodipodi:nodetypes="ccccc" />
    <path
       style="fill:url(#linearGradient4816);fill-opacity:1;stroke:none;stroke-width:0.99999994000000003px;stroke-linecap:butt;stroke-linejoin:round;stroke-opacity:1"
       d="m 132.86269,217.70869 c 0.20491,-2.01047 3.07642,-2.17219 4.0498,0 2.59502,7.45086 4.01915,14.40008 4.41365,20.51366 -1.6434,-2.67868 -3.21266,-5.41031 -5.76359,-7.44075 -1.66785,2.23492 -3.49273,4.53268 -5.82602,7.03378 1.18418,-6.81593 2.57043,-13.79352 3.12616,-20.10669 z"
       id="path3891"
       inkscape:connector-curvature="0"
       sodipodi:nodetypes="cccccc" />
    <path
       style="fill:#2c2623;fill-opacity:1;stroke:none;stroke-width:0.99999994000000003px;stroke-linecap:butt;stroke-linejoin:miter;stroke-opacity:1"
       d="m 180.70888,186.82504 c 4.61293,4.43009 7.56646,11.43221 14.56939,12.15779 1.6556,0.29366 3.56136,-1.28214 3.96891,-3.01433 -1.01138,-4.53726 -5.57919,-9.30911 -12.0072,-12.86113 z"
       id="path3895"
       inkscape:connector-curvature="0"
       sodipodi:nodetypes="ccccc" />
    <path
       style="fill:url(#linearGradient4824);fill-opacity:1;stroke:none;stroke-width:0.99999994000000003px;stroke-linecap:butt;stroke-linejoin:round;stroke-opacity:1"
       d="m 196.5845,195.51637 c 3.29656,-0.1964 9.35018,9.91062 9.99761,16.5788 -1.22605,-1.26559 -2.47897,-2.47743 -3.96891,-3.21528 -0.78264,2.31362 -2.78343,5.54181 -5.02393,7.18415 2.61369,-12.19331 -0.0369,-15.57556 -2.66267,-19.44243 z"
       id="path3897"
       inkscape:connector-curvature="0"
       sodipodi:nodetypes="cccccc" />
    <path
       style="fill:#2c2623;fill-opacity:1;stroke:none;stroke-width:0.99999994000000003px;stroke-linecap:butt;stroke-linejoin:miter;stroke-opacity:1"
       d="m 209.99837,178.33469 c 4.84242,1.44908 9.12239,5.9353 14.5694,4.11957 l 1.10526,-2.4617 c -0.0287,-4.57381 -6.23534,-6.20847 -12.35886,-6.98318 z"
       id="path3899"
       inkscape:connector-curvature="0"
       sodipodi:nodetypes="ccccc" />
    <path
       style="fill:url(#linearGradient4832);fill-opacity:1;stroke:none;stroke-width:0.99999994000000003px;stroke-linecap:butt;stroke-linejoin:round;stroke-opacity:1"
       d="m 223.91466,179.03803 c 4.75703,1.55906 9.09534,4.69372 10.29904,9.4449 -0.97475,-0.8122 -1.70672,-1.2476 -2.56221,-1.30621 0.27382,1.78199 0.49928,5.22158 -1.55741,8.49036 0.45776,-6.01846 -1.74735,-11.0627 -6.78229,-15.07164 z"
       id="path3901"
       inkscape:connector-curvature="0"
       sodipodi:nodetypes="cccccc" />
    <path
       style="fill:#2c2623;fill-opacity:1;stroke:none;stroke-width:0.99999994000000003px;stroke-linecap:butt;stroke-linejoin:miter;stroke-opacity:1"
       d="m 37.727951,186.82504 c -4.643424,2.27475 -3.185156,3.96839 -2.411485,5.72723 1.647947,2.8441 4.338194,0.12933 6.732062,-1.00477 z"
       id="path3903"
       inkscape:connector-curvature="0"
       sodipodi:nodetypes="cccc" />
  </g>
  <g
     inkscape:groupmode="layer"
     id="layer4"
     inkscape:label="elitra"
     style="display:inline">
    <path
       style="fill:#29120f;fill-opacity:1;stroke:#000000;stroke-width:0.99999994px;stroke-linecap:butt;stroke-linejoin:miter;stroke-opacity:1"
       d="m 85.970312,105.02592 c 6.802578,-1.50685 14.552778,-0.24602 19.193338,3.27536 l 58.81852,-46.899078 c -12.06177,-4.066665 -31.14561,-9.18194 -49.45014,-5.968067 z"
       id="path3844"
       inkscape:connector-curvature="0"
       sodipodi:nodetypes="ccccc" />
    <path
       style="fill:url(#linearGradient3926);fill-opacity:1;stroke:none;stroke-width:0.99999994000000003px;stroke-linecap:butt;stroke-linejoin:miter;stroke-opacity:1"
       d="M 89.072475,102.72528 C 105.01662,89.492454 123.30047,64.680921 125.14426,52.888383 91.584907,53.847901 62.686815,68.808697 44.044597,96.588418 32.353665,114.00966 23.308742,138.90865 27.680099,162.71042 34.807375,134.73715 52.010575,112.79138 89.072475,102.72528 z"
       id="path3828"
       inkscape:connector-curvature="0"
       sodipodi:nodetypes="ccscc" />
    <path
       style="fill:url(#linearGradient3934);fill-opacity:1;stroke:none;stroke-width:0.99999994000000003px;stroke-linecap:butt;stroke-linejoin:miter;stroke-opacity:1"
       d="m 155.68974,191.84893 c 22.72826,-2.35919 72.41675,-7.81071 79.9809,-38.18149 0.18697,-58.519461 -30.22425,-86.810602 -79.9809,-96.056608 -30.83831,2.178928 -55.825882,28.261534 -52.04788,47.626388 32.5397,15.26502 48.56868,48.86339 52.04788,86.61171 z"
       id="path3826"
       inkscape:connector-curvature="0"
       sodipodi:nodetypes="ccccc" />
    <path
       style="fill:#070608;fill-opacity:0.48858449;stroke:none;stroke-width:0.99999994000000003px;stroke-linecap:butt;stroke-linejoin:miter;stroke-opacity:1"
       d="m 55.010256,99.610469 c -4.642863,1.780111 -10.041282,2.563951 -7.334932,-3.717669 4.4946,-10.432256 16.543844,-19.512316 23.11006,-22.607462 3.908628,-1.842425 10.418662,-2.978714 9.545459,2.411464 -0.488968,3.01834 -10.634467,18.282888 -25.320587,23.913667 z"
       id="path3816"
       inkscape:connector-curvature="0"
       sodipodi:nodetypes="sssss" />
    <path
       style="fill:#070608;fill-opacity:0.44748858;stroke:none"
       d="m 127.35065,95.566042 c -0.11054,18.124598 20.55157,28.397098 34.39679,27.526078 14.09831,-0.88697 21.294,-17.11182 12.96232,-27.690897 -15.87726,-20.160044 -47.25861,-16.305489 -47.35911,0.164819 z"
       id="path3822"
       inkscape:connector-curvature="0"
       sodipodi:nodetypes="ssss" />
    <path
       style="fill:#070608;fill-opacity:0.36073058;stroke:none"
       d="m 207.64466,102.72957 c -0.30372,13.16239 3.98539,24.7371 10.37315,32.25595 3.34457,3.9368 10.05006,3.97179 10.79946,-3.6945 1.22219,-12.50286 -2.99192,-24.51558 -10.01792,-32.398076 -5.3651,-6.01914 -10.97969,-3.74759 -11.15469,3.836626 z"
       id="path3824"
       inkscape:connector-curvature="0"
       sodipodi:nodetypes="sssss" />
    <path
       sodipodi:nodetypes="sssss"
       inkscape:connector-curvature="0"
       id="path4844"
       d="m 182.46248,138.00446 c -0.2315,8.81209 2.68052,12.4541 6.20997,15.52361 2.76681,2.40624 8.99942,4.44478 9.57062,-0.68772 0.93155,-8.37054 -2.28044,-16.41293 -7.63565,-21.69019 -4.08927,-4.02975 -8.01156,1.77674 -8.14494,6.8543 z"
       style="fill:#070608;fill-opacity:0.36073058;stroke:none" />
  </g>
  <g
     inkscape:groupmode="layer"
     id="layer2"
     inkscape:label="head"
     style="display:inline">
    <path
       style="fill:url(#linearGradient3950);fill-opacity:1;stroke:none;stroke-width:0.99999994000000003px;stroke-linecap:butt;stroke-linejoin:miter;stroke-opacity:1"
       d="m 27.378664,158.89226 c 0.566311,-30.52557 16.348604,-47.25219 35.770352,-54.45885 29.964838,-11.118816 56.258724,-0.82283 77.870854,23.51176 16.73102,18.83861 18.17044,44.13914 18.88996,65.10949 -9.75101,1.23078 -21.25281,6.05082 -33.76077,5.62675 z"
       id="path3804"
       inkscape:connector-curvature="0"
       sodipodi:nodetypes="cssccc" />
    <path
       sodipodi:nodetypes="csscc"
       inkscape:connector-curvature="0"
       id="path4024"
       d="m 53.895168,135.40622 c 8.194019,-8.9552 26.275357,-11.09077 37.034182,-6.48759 22.06627,9.44108 39.59112,27.5329 46.25206,56.18108 1.47494,6.34359 1.22307,15.01592 -13.55773,14.46558 1.16918,-45.33539 -22.40325,-59.8249 -69.728512,-64.15907 z"
       style="fill:#1d1a19;fill-opacity:0.81278536999999984;stroke:none;filter:url(#filter4032)" />
    <path
       sodipodi:nodetypes="sssssscs"
       inkscape:connector-curvature="0"
       id="path3800"
       d="m 84.478281,205.34627 c 13.786054,-1.6676 23.820879,1.69436 36.092919,-1.13677 9.0474,-2.08724 13.53142,-10.25107 10.16001,-21.88292 -9.63701,-33.24908 -62.084654,-83.156231 -98.473974,-33.96114 -6.146135,8.30903 -10.923841,22.09531 -2.557765,33.53485 4.204169,5.74865 9.377334,10.77517 18.188555,21.17243 5.645342,6.66152 11.952212,6.58293 18.756947,5.54177 6.492502,-1.48024 11.719381,-2.52867 17.833308,-3.26822 z"
       style="fill:#403836;fill-opacity:1;stroke:none;stroke-width:0.99999994000000003px;stroke-linecap:butt;stroke-linejoin:miter;stroke-opacity:1" />
    <path
       transform="matrix(0.99535401,0,0,0.99534517,-64.272657,-12.810822)"
       d="m 121.34457,150.37593 a 17.488266,17.488266 0 1 1 -34.976528,0 17.488266,17.488266 0 1 1 34.976528,0 z"
       sodipodi:ry="17.488266"
       sodipodi:rx="17.488266"
       sodipodi:cy="150.37593"
       sodipodi:cx="103.85631"
       id="path3786"
       style="fill:#ffffff;fill-opacity:1;stroke:#c4c4c4;stroke-width:1.00467217;stroke-miterlimit:4;stroke-opacity:1;stroke-dasharray:none"
       sodipodi:type="arc" />
    <path
       sodipodi:type="arc"
       style="fill:#1468ff;fill-opacity:1;stroke:none"
       id="path3788"
       sodipodi:cx="103.85631"
       sodipodi:cy="150.37593"
       sodipodi:rx="17.488266"
       sodipodi:ry="17.488266"
       d="m 121.34457,150.37593 a 17.488266,17.488266 0 1 1 -34.976528,0 17.488266,17.488266 0 1 1 34.976528,0 z"
       transform="matrix(0.46402505,0,0,0.46402092,-9.2863876,66.641328)" />
    <path
       style="fill:#625856;fill-opacity:1;stroke:none;filter:url(#filter4020)"
       d="m 52.654201,195.39084 c -0.704445,-11.06294 4.87605,-37.30124 12.374369,-52.78046 -8.332479,-0.0435 -17.752508,10.93798 -26.769042,12.6269 -6.09129,1.14098 -6.530217,11.39456 -3.788072,14.52095 8.660238,9.87377 14.009398,15.94849 18.182745,25.63261 z"
       id="path4006"
       inkscape:connector-curvature="0"
       sodipodi:nodetypes="ccssc" />
    <path
       sodipodi:nodetypes="cc"
       inkscape:connector-curvature="0"
       id="path3796"
       d="M 48.811664,175.29279 C 30.594603,164.3855 -2.6418606,183.96526 15.347565,209.82232"
       style="fill:none;stroke:#000000;stroke-width:1.99999988;stroke-linecap:round;stroke-linejoin:miter;stroke-miterlimit:4;stroke-opacity:1;stroke-dasharray:none" />
    <path
       sodipodi:type="arc"
       style="fill:#ffffff;fill-opacity:1;stroke:none"
       id="path2997"
       sodipodi:cx="103.85631"
       sodipodi:cy="150.37593"
       sodipodi:rx="17.488266"
       sodipodi:ry="17.488266"
       d="m 121.34457,150.37593 a 17.488266,17.488266 0 1 1 -34.976528,0 17.488266,17.488266 0 1 1 34.976528,0 z"
       transform="matrix(1.0853409,0,0,1.0853311,-4.1179614,-11.46189)" />
    <path
       transform="matrix(0.48406575,0,0,0.48406145,59.651193,76.665847)"
       d="m 121.34457,150.37593 a 17.488266,17.488266 0 1 1 -34.976528,0 17.488266,17.488266 0 1 1 34.976528,0 z"
       sodipodi:ry="17.488266"
       sodipodi:rx="17.488266"
       sodipodi:cy="150.37593"
       sodipodi:cx="103.85631"
       id="path3775"
       style="fill:#1468ff;fill-opacity:1;stroke:none"
       sodipodi:type="arc" />
    <path
       sodipodi:nodetypes="cssssscc"
       inkscape:connector-curvature="0"
       id="path4842"
       d="m 130.26465,148.95095 c 18.00557,-6.84912 35.27165,-13.26767 52.71838,-17.69105 22.2026,-5.62918 22.97166,21.35948 21.05256,35.23811 -0.83093,6.00917 -11.04379,5.11251 -10.9385,-1.10411 0.16538,-9.76429 0.12491,-16.74375 -1.34993,-22.4513 -1.43049,-5.5359 -2.40623,-6.41873 -6.8458,-4.93311 l -54.56566,18.25944 z"
       style="fill:#48170e;fill-opacity:0.57990866;stroke:none" />
    <path
       style="fill:#e17662;fill-opacity:1;stroke:none"
       d="m 129.72894,142.3438 c 16.577,-5.24197 35.80736,-11.66052 53.25409,-16.0839 22.2026,-5.62918 23.23733,23.52787 21.14185,37.38096 -0.65236,4.31274 -8.36522,4.13037 -8.17064,-0.56839 0.40406,-9.75733 0.12491,-16.74375 -1.34993,-22.4513 -1.43049,-5.5359 -4.37052,-7.31159 -8.81009,-5.82597 l -54.56566,18.25944 z"
       id="path3886"
       inkscape:connector-curvature="0"
       sodipodi:nodetypes="cssssscc" />
    <path
       id="path3772"
       style="fill:#e17662;fill-opacity:1;stroke:none"
       d="m 90.094953,170.13703 c 6.662478,2.29883 6.76364,3.24548 14.406287,4.22263 14.64902,2.14675 18.91371,-10.47227 19.40927,-22.86808 0.0974,-2.92639 -1.009,-6.42932 -3.83666,-7.67323 -9.24724,-4.06798 -22.252029,-6.42534 -31.190526,-7.31799 -3.448618,-0.34439 -6.903203,0.47925 -7.886444,5.75492 -1.409627,7.5635 0.25169,12.52275 2.555867,19.52501 1.203076,3.65608 4.259312,7.56905 6.542206,8.35674 z M 18.118477,153.83617 c 6.781545,2.90873 13.864845,4.43126 21.030517,5.39968 4.259186,0.57562 5.074273,-0.87937 6.110217,-2.48669 4.78554,-7.42498 7.583058,-14.19576 7.602248,-19.25412 0.0174,-4.5874 -1.671366,-7.9292 -5.754972,-9.59153 -7.279518,-2.96332 -17.442046,-5.47443 -27.780176,-6.03912 -3.875979,-0.21172 -6.218294,1.97194 -6.749659,5.75492 -0.888993,6.32907 -1.312091,12.37515 -1.207834,17.40686 0.06871,3.31626 1.330758,6.48573 6.749659,8.81 z m -4.60585,4.85515 c -6.5185308,-2.98421 -8.1137059,-8.44492 -8.0382808,-13.464 0.1021051,-6.79444 0.5079798,-13.84727 2.0095704,-21.90413 1.2524014,-6.71983 5.8341784,-8.12185 12.1751404,-7.8423 10.60752,0.46767 21.233039,3.03988 29.523446,5.53132 5.903968,1.77425 10.676901,6.73672 19.191396,8.54059 8.168584,1.73061 15.717555,-2.85881 25.431489,-1.70766 13.421392,1.59054 20.216562,3.23732 29.854092,6.94439 4.8451,1.86367 11.00633,9.38729 10.85064,14.69111 0.389,16.90365 -6.89879,33.0521 -25.98598,31.86334 -11.024162,-1.11155 -11.242598,-1.53794 -22.767457,-5.16961 -3.70536,-1.16762 -6.242736,-3.51905 -7.43541,-7.03344 l -7.535889,-22.20555 c -1.458561,-4.29786 -6.818722,-6.24486 -9.244024,-2.21051 L 51.091595,162.1075 c -2.11562,2.60314 -6.225517,4.21238 -11.153117,3.41624 -8.76275,-1.41577 -19.257757,-3.55091 -26.425851,-6.83247 z"
       inkscape:connector-curvature="0"
       sodipodi:nodetypes="sccsssssssssssssscsssssssccsssscscc" />
    <g
       id="g3876"
       transform="matrix(1.1253594,0,0,1.1253494,-3.267285,-20.078463)"
       style="stroke:none">
      <path
         sodipodi:nodetypes="ccccc"
         inkscape:connector-curvature="0"
         id="path3870"
         d="m 184.76322,138.60133 1.04171,6.12405 -13.47922,1.5468 -0.94702,-5.96621 z"
         style="fill:#484248;fill-opacity:1;stroke:none;stroke-width:0.44430447000000001;stroke-linecap:butt;stroke-linejoin:miter;stroke-miterlimit:4;stroke-opacity:1;stroke-dasharray:none" />
      <path
         sodipodi:nodetypes="ccsccc"
         inkscape:connector-curvature="0"
         id="path3872"
         d="m 185.03153,134.103 c -1.55803,-1.41611 -3.68927,-2.55928 -5.99777,-3.40926 0,0 -7.59193,6.07669 -7.46566,6.17139 0.12627,0.0947 1.51523,4.45099 1.64149,4.48256 0.12627,0.0316 10.95385,-1.79934 10.95385,-1.79934 z"
         style="fill:#877878;fill-opacity:1;stroke:none;stroke-width:0.44430447000000001;stroke-linecap:butt;stroke-linejoin:round;stroke-miterlimit:4;stroke-opacity:1;stroke-dasharray:none" />
      <path
         sodipodi:nodetypes="ccccc"
         inkscape:connector-curvature="0"
         id="path3860"
         d="m 168.1904,137.74902 5.93465,-6.50286 4.92449,-0.56821 c -0.66039,1.85013 -2.98814,5.07174 -6.25032,6.75539 z"
         style="fill:#615246;fill-opacity:1;stroke:none;stroke-width:0.44430447000000001;stroke-linecap:butt;stroke-linejoin:round;stroke-miterlimit:4;stroke-opacity:1;stroke-dasharray:none" />
      <path
         sodipodi:nodetypes="cccccc"
         inkscape:connector-curvature="0"
         id="path3874"
         d="m 186.08904,150.37592 c -0.99964,1.21725 -2.32371,2.54547 -4.24579,3.53554 l -8.42847,-3.6618 0.63135,-5.42957 9.01245,-0.82075 z"
         style="fill:#877878;fill-opacity:1;stroke:none;stroke-width:0.44430447000000001;stroke-linecap:butt;stroke-linejoin:round;stroke-miterlimit:4;stroke-opacity:1;stroke-dasharray:none" />
      <path
         sodipodi:nodetypes="ccccccccc"
         inkscape:connector-curvature="0"
         id="path3862"
         d="m 168.19228,137.83194 1.71844,11.69484 4.41964,-0.35714 c 0.3038,-1.273 0.50177,-3.14711 0.44643,-4.50893 l -2.63393,0.35715 -0.53572,-3.4375 2.8125,-0.26786 c -0.28968,-1.08971 -0.95854,-2.64718 -1.68526,-3.85045 z"
         style="fill:#5c4e45;fill-opacity:1;stroke:none;stroke-width:0.44430447000000001;stroke-linecap:butt;stroke-linejoin:round;stroke-miterlimit:4;stroke-opacity:1;stroke-dasharray:none" />
      <path
         sodipodi:nodetypes="ccccc"
         inkscape:connector-curvature="0"
         id="path3864"
         d="m 169.99617,149.57797 7.13903,4.75446 4.7921,-0.45185 c -1.63973,-1.92743 -4.14481,-3.76437 -7.67316,-4.6832 z"
         style="fill:#594746;fill-opacity:1;stroke:none;stroke-width:0.44430447000000001;stroke-linecap:butt;stroke-linejoin:round;stroke-miterlimit:4;stroke-opacity:1;stroke-dasharray:none" />
      <path
         sodipodi:nodetypes="ccsc"
         inkscape:connector-curvature="0"
         id="path3866"
         d="m 174.69867,141.28296 13.44224,-1.5452 c -0.70839,-3.80929 -4.02704,-8.09855 -8.16285,-7.18968 -4.26672,0.93764 -5.42162,5.88345 -5.27939,8.73488 z"
         style="fill:#625b62;fill-opacity:1;stroke:none;stroke-width:0.44430447000000001;stroke-linecap:butt;stroke-linejoin:round;stroke-miterlimit:4;stroke-opacity:1;stroke-dasharray:none" />
      <path
         style="fill:#625b62;fill-opacity:1;stroke:none;stroke-width:0.44430447000000001;stroke-linecap:butt;stroke-linejoin:round;stroke-miterlimit:4;stroke-opacity:1;stroke-dasharray:none"
         d="m 174.91758,144.63628 13.47884,-1.29208 c 0.27009,3.57873 -2.35759,8.69588 -5.42411,9.21524 -3.61439,0.61215 -7.45411,-5.13207 -8.05473,-7.92316 z"
         id="path3868"
         inkscape:connector-curvature="0"
         sodipodi:nodetypes="ccsc" />
    </g>
    <path
       sodipodi:nodetypes="cc"
       inkscape:connector-curvature="0"
       id="path3798"
       d="m 75.407397,181.39926 c 15.759954,0.59575 37.619213,37.24048 39.588543,56.66937"
       style="fill:none;stroke:#000000;stroke-width:2.5;stroke-linecap:round;stroke-linejoin:miter;stroke-miterlimit:4;stroke-opacity:1;stroke-dasharray:none" />
  </g>
  <g
     inkscape:groupmode="layer"
     id="layer3"
     inkscape:label="hat"
     style="display:inline">
    <path
       style="fill:url(#linearGradient3916);fill-opacity:1;stroke:none"
       d="m 102.0274,68.649143 c -0.87544,8.076927 3.39995,13.582515 9.82202,18.330493 19.63979,14.520144 43.26049,20.054204 70.14473,14.091964 6.13191,-1.359913 11.11324,-6.13137 12.6812,-12.528906 2.48843,-10.153214 2.93917,-16.414343 3.83666,-23.019682 l -89.6639,-21.456619 c -2.64018,6.517508 -5.65453,13.823381 -6.82071,24.58275 z"
       id="path3813"
       inkscape:connector-curvature="0"
       sodipodi:nodetypes="ssssccs" />
    <path
       style="fill:url(#linearGradient3958);fill-opacity:1;stroke:none"
       d="m 135.69452,2.9510078 c 15.40945,3.5771203 70.17207,24.9392822 100.88043,40.2915272 1.40222,0.701021 1.75809,2.153937 0.80384,3.014328 -14.59179,13.156575 -30.28135,27.199845 -47.02396,42.702994 -1.34202,1.242664 -3.7952,1.457963 -6.83254,0 C 150.09447,72.913939 118.59656,55.678193 71.790172,40.529638 67.179116,39.037302 68.5259,36.917789 69.780601,36.008145 86.613579,23.804417 106.03731,13.425138 126.65145,3.654351 c 3.33406,-1.5802939 6.17311,-1.3695687 9.04307,-0.7033432 z"
       id="path3811"
       inkscape:connector-curvature="0"
       sodipodi:nodetypes="sssssssss" />
    <path
       sodipodi:type="arc"
       style="fill:#2b272f;fill-opacity:1;stroke:#0d0c0e;stroke-width:0.88860893;stroke-linecap:round;stroke-linejoin:round;stroke-miterlimit:4;stroke-opacity:1;stroke-dasharray:none"
       id="path3846"
       sodipodi:cx="209.41965"
       sodipodi:cy="104.14732"
       sodipodi:rx="2.2767856"
       sodipodi:ry="2.7901785"
       d="m 211.69643,104.14732 a 2.2767856,2.7901785 0 1 1 -4.55357,0 2.2767856,2.7901785 0 1 1 4.55357,0 z"
       transform="matrix(1.1253594,0,0,1.1253494,-3.7194385,-38.234769)" />
    <path
       style="fill:none;stroke:#0d0c0e;stroke-width:0.99999994px;stroke-linecap:round;stroke-linejoin:miter;stroke-opacity:1"
       d="m 230.55512,81.762747 c -2.64574,4.827902 -3.74859,13.715741 -3.3393,20.390893"
       id="path3848"
       inkscape:connector-curvature="0"
       sodipodi:nodetypes="cc" />
    <path
       sodipodi:nodetypes="cc"
       inkscape:connector-curvature="0"
       id="path3850"
       d="m 233.06707,81.712511 c 2.22748,5.38053 2.33038,13.163122 2.23726,20.039219"
       style="fill:none;stroke:#0d0c0e;stroke-width:0.99999994px;stroke-linecap:round;stroke-linejoin:miter;stroke-opacity:1" />
    <path
       style="fill:none;stroke:#0d0c0e;stroke-width:0.99999994px;stroke-linecap:round;stroke-linejoin:miter;stroke-opacity:1"
       d="m 232.31349,82.164666 c 0.77053,3.571937 1.62702,13.514791 1.38319,20.139684"
       id="path3852"
       inkscape:connector-curvature="0"
       sodipodi:nodetypes="cc" />
    <path
       sodipodi:nodetypes="cc"
       inkscape:connector-curvature="0"
       id="path3854"
       d="m 231.158,82.114419 c -1.33953,5.280055 -2.79405,13.565038 -2.53549,20.139701"
       style="fill:none;stroke:#0d0c0e;stroke-width:0.99999994px;stroke-linecap:round;stroke-linejoin:miter;stroke-opacity:1" />
    <path
       sodipodi:nodetypes="cc"
       inkscape:connector-curvature="0"
       id="path3856"
       d="m 231.96181,82.164666 c 0.56957,4.124561 0.37105,13.414307 -0.0737,20.340644"
       style="fill:none;stroke:#0d0c0e;stroke-width:0.99999994px;stroke-linecap:round;stroke-linejoin:miter;stroke-opacity:1" />
    <path
       style="fill:none;stroke:#0d0c0e;stroke-width:0.99999994px;stroke-linecap:round;stroke-linejoin:miter;stroke-opacity:1"
       d="m 231.96181,82.164666 c -1.11625,6.330206 -1.98623,14.920399 -1.78183,20.139684"
       id="path3858"
       inkscape:connector-curvature="0"
       sodipodi:nodetypes="cc" />
    <path
       style="fill:none;stroke:#4a5054;stroke-width:1.99999988000000010;stroke-linecap:round;stroke-linejoin:miter;stroke-miterlimit:4;stroke-opacity:1;stroke-dasharray:none"
       d="m 70.633819,37.88013 c 0.111208,1.125011 6.649393,2.592184 10.785406,4.041521 36.110785,12.653898 64.948385,26.649956 96.270355,42.264799 8.02828,4.002316 10.84744,3.890895 17.57855,-2.332407 13.19632,-12.200741 28.70674,-25.89125 40.86539,-36.851832"
       id="path3918"
       inkscape:connector-curvature="0"
       sodipodi:nodetypes="csssc" />
    <path
       style="fill:none;stroke:#0d0c0e;stroke-width:1.99999988;stroke-linecap:butt;stroke-linejoin:miter;stroke-miterlimit:4;stroke-opacity:1;stroke-dasharray:none"
       d="m 166.23999,37.615785 65.91391,12.25827 0,28.455263"
       id="path3809"
       inkscape:connector-curvature="0"
       sodipodi:nodetypes="ccc" />
    <path
       style="fill:url(#linearGradient3986);fill-opacity:1;stroke:url(#linearGradient3978);stroke-width:1.50000000000000000;stroke-linecap:butt;stroke-linejoin:miter;stroke-opacity:1;stroke-miterlimit:4;stroke-dasharray:none"
       d="m 150.07711,32.442979 c -0.0367,1.699875 0.28081,3.279481 0.97095,4.859618 0.44792,1.025556 1.58808,1.69921 2.55254,2.003094 3.55557,1.120299 6.25327,1.130739 9.88875,1.423743 0.76602,0.06174 2.81136,0.405348 3.06585,-1.996469 0.13406,-1.265186 0.0387,-2.320265 -0.4898,-3.46599 -0.61396,-1.331059 -2.07041,-2.140718 -2.9127,-2.421014 -3.74849,-1.247421 -7.40055,-1.66416 -10.90205,-1.791034 -1.30275,-0.0472 -2.15152,0.36845 -2.17354,1.388052 z"
       id="path3807"
       inkscape:connector-curvature="0"
       sodipodi:nodetypes="sssssssss" />
  </g>
</svg>
