<?xml version="1.0" encoding="UTF-8" standalone="no"?>
<!-- Created with Inkscape (http://www.inkscape.org/) -->

<svg
   xmlns:dc="http://purl.org/dc/elements/1.1/"
   xmlns:cc="http://creativecommons.org/ns#"
   xmlns:rdf="http://www.w3.org/1999/02/22-rdf-syntax-ns#"
   xmlns:svg="http://www.w3.org/2000/svg"
   xmlns="http://www.w3.org/2000/svg"
   xmlns:xlink="http://www.w3.org/1999/xlink"
   xmlns:sodipodi="http://sodipodi.sourceforge.net/DTD/sodipodi-0.dtd"
   xmlns:inkscape="http://www.inkscape.org/namespaces/inkscape"
   width="256"
   height="256"
   id="svg2"
   version="1.1"
   inkscape:version="0.48.2 r9819"
   sodipodi:docname="icon_32.svg"
   inkscape:export-filename="L:\projects\Adeptus\Adeptus\Icon\icon_32.png"
   inkscape:export-xdpi="45"
   inkscape:export-ydpi="45">
  <defs
     id="defs4">
    <linearGradient
       id="linearGradient4036">
      <stop
         style="stop-color:#ffffff;stop-opacity:1;"
         offset="0"
         id="stop4038" />
      <stop
         id="stop4046"
         offset="0.80737662"
         style="stop-color:#e7e7e7;stop-opacity:1;" />
      <stop
         style="stop-color:#b5b5b5;stop-opacity:1;"
         offset="1"
         id="stop4040" />
    </linearGradient>
    <linearGradient
       id="linearGradient3972">
      <stop
         style="stop-color:#161519;stop-opacity:1;"
         offset="0"
         id="stop3974" />
      <stop
         style="stop-color:#4a5054;stop-opacity:1;"
         offset="1"
         id="stop3976" />
    </linearGradient>
    <linearGradient
       id="linearGradient3944">
      <stop
         style="stop-color:#403836;stop-opacity:1;"
         offset="0"
         id="stop3946" />
      <stop
         style="stop-color:#625856;stop-opacity:1;"
         offset="1"
         id="stop3948" />
    </linearGradient>
    <linearGradient
       id="linearGradient3936">
      <stop
         style="stop-color:#57c11d;stop-opacity:1;"
         offset="0"
         id="stop3938" />
      <stop
         style="stop-color:#429517;stop-opacity:1;"
         offset="1"
         id="stop3940" />
    </linearGradient>
    <linearGradient
       id="linearGradient3928">
      <stop
         style="stop-color:#e93a23;stop-opacity:1;"
         offset="0"
         id="stop3930" />
      <stop
         style="stop-color:#b8200c;stop-opacity:1;"
         offset="1"
         id="stop3932" />
    </linearGradient>
    <linearGradient
       id="linearGradient3920">
      <stop
         style="stop-color:#c72814;stop-opacity:1;"
         offset="0"
         id="stop3922" />
      <stop
         style="stop-color:#b9473e;stop-opacity:1;"
         offset="1"
         id="stop3924" />
    </linearGradient>
    <linearGradient
       id="linearGradient3910">
      <stop
         style="stop-color:#28272f;stop-opacity:1;"
         offset="0"
         id="stop3912" />
      <stop
         style="stop-color:#707584;stop-opacity:1;"
         offset="1"
         id="stop3914" />
    </linearGradient>
    <linearGradient
       inkscape:collect="always"
       xlink:href="#linearGradient3910"
       id="linearGradient3916"
       x1="168.06531"
       y1="100.63976"
       x2="102.55478"
       y2="75.975677"
       gradientUnits="userSpaceOnUse"
       gradientTransform="matrix(1.1253594,0,0,1.1253494,-3.267285,-20.078463)" />
    <linearGradient
       inkscape:collect="always"
       xlink:href="#linearGradient3944"
       id="linearGradient3950"
       x1="135.23579"
       y1="147.19356"
       x2="60.266979"
       y2="117.90784"
       gradientUnits="userSpaceOnUse" />
    <linearGradient
       inkscape:collect="always"
       xlink:href="#linearGradient3910"
       id="linearGradient3958"
       x1="151.79286"
       y1="62.997753"
       x2="130.23502"
       y2="7.6406074"
       gradientUnits="userSpaceOnUse" />
    <filter
       inkscape:collect="always"
       id="filter4032"
       x="-0.11224019"
       width="1.2244804"
       y="-0.12891246"
       height="1.2578249">
      <feGaussianBlur
         inkscape:collect="always"
         stdDeviation="3.9225208"
         id="feGaussianBlur4034" />
    </filter>
    <radialGradient
       inkscape:collect="always"
       xlink:href="#linearGradient4036"
       id="radialGradient4044"
       cx="98.554138"
       cy="155.98552"
       fx="98.554138"
       fy="155.98552"
       r="17.488266"
       gradientUnits="userSpaceOnUse"
       gradientTransform="matrix(1.2463065,-0.32503275,0.28971921,1.1109199,-69.466521,14.731438)" />
    <linearGradient
       inkscape:collect="always"
       xlink:href="#linearGradient3928"
       id="linearGradient6312"
       gradientUnits="userSpaceOnUse"
       x1="105.20452"
       y1="90.802299"
       x2="174.1965"
       y2="171.45607" />
  </defs>
  <sodipodi:namedview
     id="base"
     pagecolor="#ffffff"
     bordercolor="#666666"
     borderopacity="1.0"
     inkscape:pageopacity="0.0"
     inkscape:pageshadow="2"
     inkscape:zoom="2.8"
     inkscape:cx="69.368004"
     inkscape:cy="121.86492"
     inkscape:document-units="px"
     inkscape:current-layer="layer2"
     showgrid="false"
     inkscape:window-width="1920"
     inkscape:window-height="1138"
     inkscape:window-x="-8"
     inkscape:window-y="-8"
     inkscape:window-maximized="1" />
  <metadata
     id="metadata7">
    <rdf:RDF>
      <cc:Work
         rdf:about="">
        <dc:format>image/svg+xml</dc:format>
        <dc:type
           rdf:resource="http://purl.org/dc/dcmitype/StillImage" />
        <dc:title></dc:title>
      </cc:Work>
    </rdf:RDF>
  </metadata>
  <g
     inkscape:groupmode="layer"
     id="layer6"
     inkscape:label="leaf">
    <path
       style="fill:#57c11d;fill-opacity:1;stroke:none"
       d="m 33.70881,182.20307 c -5.27838,31.29163 9.144302,48.49519 15.071778,71.74102 C 108.583,235.1 173.75804,233.05194 216.98164,198.27949 259.5649,164.02218 247.18151,121.5386 222.60844,106.6439 153.81353,64.9446 46.886739,104.08087 33.70881,182.20307 z"
       id="path3908"
       inkscape:connector-curvature="0"
       sodipodi:nodetypes="scsss" />
  </g>
  <g
     inkscape:groupmode="layer"
     id="layer5"
     inkscape:label="legs"
     style="display:inline">
    <path
       style="fill:#453b37;fill-opacity:1;stroke:none"
       d="m 132.07624,194.01371 -7.53765,4.13525 c 3.27935,7.34198 3.00714,21.02315 9.95977,21.78927 l 0.41196,-0.16996 c 1.07704,7.05712 1.50774,15.06178 2.09311,22.8452 1.74678,-3.52795 3.00849,-6.65542 4.13782,-9.66871 3.18087,1.38059 5.51824,3.86051 7.93312,6.25654 -2.03913,-6.58854 -5.35514,-13.73947 -10.02769,-21.06361 3.70612,-4.98875 -4.59926,-16.06084 -6.97044,-24.12401 z"
       id="path3893"
       inkscape:connector-curvature="0" />
    <path
       style="fill:#3c342f;fill-opacity:1;stroke:none"
       d="m 187.13471,183.09375 -7.67865,4.6018 c 5.42332,5.48204 8.88762,14.14497 17.12082,15.04284 0.43748,0.0817 0.87877,0.0506 1.32263,-0.0773 2.30414,4.01595 3.86994,9.083 1.39612,21.23013 2.63412,-2.03232 4.995,-6.03122 5.91514,-8.89422 1.75169,0.91305 3.22454,2.41695 4.66598,3.98306 -0.5988,-6.49132 -5.13455,-15.5852 -8.92781,-19.06458 0.13324,-0.29057 0.22585,-0.58497 0.29392,-0.88942 -1.18907,-5.61467 -6.55087,-11.5368 -14.10815,-15.93227 z"
       id="path3895"
       inkscape:connector-curvature="0" />
    <path
       style="fill:#2c2623;fill-opacity:1;stroke:none"
       d="m 214.44159,168.95939 -4.69413,6.35634 c 6.86217,1.72367 12.91752,7.06644 20.63645,4.90665 l 0.35427,-0.66909 c 5.61917,4.49541 8.06387,9.95643 7.48404,16.3555 2.91452,-3.88819 2.60224,-7.95384 2.21421,-10.0735 1.21231,0.0697 2.24999,0.55793 3.63131,1.52403 -1.49583,-4.95596 -6.40153,-8.41378 -12.13388,-10.44521 -0.43056,-5.1581 -9.01529,-7.05451 -17.49227,-7.95472 z"
       id="path3899"
       inkscape:connector-curvature="0" />
  </g>
  <g
     inkscape:groupmode="layer"
     id="layer4"
     inkscape:label="elitra"
     style="display:inline">
    <path
       style="fill:url(#linearGradient6312);fill-opacity:1;stroke:none"
       d="M 125.15625 52.875 C 91.596897 53.834518 62.673468 68.814029 44.03125 96.59375 C 32.340318 114.01499 23.316143 138.91698 27.6875 162.71875 C 34.814776 134.74548 60.09435 112.78485 97.15625 102.71875 C 97.38245 102.53102 97.588619 102.31733 97.8125 102.125 C 97.718398 102.65778 97.658852 103.1891 97.59375 103.71875 C 130.13344 118.98377 152.2083 154.09543 155.6875 191.84375 C 178.41576 189.48456 228.0921 184.02703 235.65625 153.65625 C 235.84322 95.136789 205.44415 66.871006 155.6875 57.625 C 141.85586 58.602296 129.26742 63.826885 119.34375 71.15625 C 122.44554 64.063204 124.43782 57.469961 125.15625 52.875 z "
       id="path3828" />
    <path
       style="fill:#070608;fill-opacity:0.45662099;stroke:none;stroke-width:0.99999994000000003px;stroke-linecap:butt;stroke-linejoin:miter;stroke-opacity:1"
       d="m 55.010256,99.610469 c -4.642863,1.780111 -10.041282,2.563951 -7.334932,-3.717669 4.4946,-10.432256 16.543844,-19.512316 23.11006,-22.607462 3.908628,-1.842425 10.418662,-2.978714 9.545459,2.411464 -0.488968,3.01834 -10.634467,18.282888 -25.320587,23.913667 z"
       id="path3816"
       inkscape:connector-curvature="0"
       sodipodi:nodetypes="sssss" />
    <path
       style="fill:#070608;fill-opacity:0.47031962;stroke:none"
       d="m 134.49125,98.198241 c -0.0927,15.625179 17.23501,24.481079 28.84592,23.730169 11.82316,-0.76465 17.85763,-14.75206 10.87049,-23.872259 -13.31502,-17.37993 -39.63213,-14.056927 -39.71641,0.14209 z"
       id="path3822"
       inkscape:connector-curvature="0"
       sodipodi:nodetypes="ssss" />
    <path
       style="fill:#070608;fill-opacity:0.35159817;stroke:none"
       d="m 202.64465,108.801 c -0.30372,13.16239 3.98539,24.7371 10.37315,32.25595 3.34457,3.9368 10.05006,3.97179 10.79946,-3.6945 1.22219,-12.50286 -2.99192,-24.51558 -10.01792,-32.39808 -5.3651,-6.019133 -10.97969,-3.74758 -11.15469,3.83663 z"
       id="path3824"
       inkscape:connector-curvature="0"
       sodipodi:nodetypes="sssss" />
  </g>
  <g
     inkscape:groupmode="layer"
     id="layer2"
     inkscape:label="head"
     style="display:inline">
    <path
       style="fill:url(#linearGradient3950);fill-opacity:1;stroke:none;stroke-width:0.99999994000000003px;stroke-linecap:butt;stroke-linejoin:miter;stroke-opacity:1"
       d="m 27.378664,158.89226 c 0.566311,-30.52557 16.348604,-47.25219 35.770352,-54.45885 29.964838,-11.118816 56.258724,-0.82283 77.870854,23.51176 16.73102,18.83861 18.17044,44.13914 18.88996,65.10949 -9.75101,1.23078 -21.25281,6.05082 -33.76077,5.62675 z"
       id="path3804"
       inkscape:connector-curvature="0"
       sodipodi:nodetypes="cssccc" />
    <path
       sodipodi:nodetypes="csscc"
       inkscape:connector-curvature="0"
       id="path4024"
       d="m 53.895168,135.40622 c 8.194019,-8.9552 26.275357,-11.09077 37.034182,-6.48759 22.06627,9.44108 39.59112,27.5329 46.25206,56.18108 1.47494,6.34359 1.22307,15.01592 -13.55773,14.46558 1.16918,-45.33539 -22.40325,-59.8249 -69.728512,-64.15907 z"
       style="fill:#1d1a19;fill-opacity:0.81278536999999984;stroke:none;filter:url(#filter4032)" />
    <path
       sodipodi:nodetypes="sssssscs"
       inkscape:connector-curvature="0"
       id="path3800"
       d="m 84.478281,205.34627 c 13.786054,-1.6676 23.820879,1.69436 36.092919,-1.13677 9.0474,-2.08724 13.53142,-10.25107 10.16001,-21.88292 -9.63701,-33.24908 -62.084654,-83.156231 -98.473974,-33.96114 -6.146135,8.30903 -10.923841,22.09531 -2.557765,33.53485 4.204169,5.74865 9.377334,10.77517 18.188555,21.17243 5.645342,6.66152 11.952212,6.58293 18.756947,5.54177 6.492502,-1.48024 11.719381,-2.52867 17.833308,-3.26822 z"
       style="fill:#5b504d;fill-opacity:1;stroke:none;stroke-width:0.99999994000000003px;stroke-linecap:butt;stroke-linejoin:miter;stroke-opacity:1" />
    <path
       transform="matrix(0.99535401,0,0,0.99534517,-65.360493,-11.187271)"
       d="m 121.34457,150.37593 a 17.488266,17.488266 0 1 1 -34.976528,0 17.488266,17.488266 0 1 1 34.976528,0 z"
       sodipodi:ry="17.488266"
       sodipodi:rx="17.488266"
       sodipodi:cy="150.37593"
       sodipodi:cx="103.85631"
       id="path3786"
       style="fill:#ffffff;fill-opacity:1;stroke:none;stroke-width:1.00467217000000010;stroke-miterlimit:4;stroke-opacity:1;stroke-dasharray:none"
       sodipodi:type="arc" />
    <path
       sodipodi:type="arc"
       style="fill:#1468ff;fill-opacity:1;stroke:none"
       id="path3788"
       sodipodi:cx="103.85631"
       sodipodi:cy="150.37593"
       sodipodi:rx="17.488266"
       sodipodi:ry="17.488266"
       d="m 121.34457,150.37593 a 17.488266,17.488266 0 1 1 -34.976528,0 17.488266,17.488266 0 1 1 34.976528,0 z"
       transform="matrix(0.46402505,0,0,0.46402092,-10.170272,68.409095)" />
    <path
       sodipodi:type="arc"
       style="fill:#ffffff;fill-opacity:1;stroke:none"
       id="path2997"
       sodipodi:cx="103.85631"
       sodipodi:cy="150.37593"
       sodipodi:rx="17.488266"
       sodipodi:ry="17.488266"
       d="m 121.34457,150.37593 a 17.488266,17.488266 0 1 1 -34.976528,0 17.488266,17.488266 0 1 1 34.976528,0 z"
       transform="matrix(1.0752809,0,0,1.0536099,-2.9046509,-6.3948166)" />
    <path
       transform="matrix(0.45956536,0,0,0.48122103,62.27232,79.742001)"
       d="m 121.34457,150.37593 a 17.488266,17.488266 0 1 1 -34.976528,0 17.488266,17.488266 0 1 1 34.976528,0 z"
       sodipodi:ry="17.488266"
       sodipodi:rx="17.488266"
       sodipodi:cy="150.37593"
       sodipodi:cx="103.85631"
       id="path3775"
       style="fill:#1468ff;fill-opacity:1;stroke:none"
       sodipodi:type="arc" />
    <path
       style="fill:#d17d6e;fill-opacity:1;stroke:none"
       d="m 129.89482,141.44351 c 18.25811,-5.58643 35.52419,-13.26767 52.97092,-17.69105 22.2026,-5.62918 23.35462,26.03531 21.25914,39.8884 -0.65236,4.31274 -10.71351,4.02844 -11.70617,-0.56839 -1.61625,-7.48449 -0.12763,-16.49121 -1.60247,-22.19876 -1.43049,-5.5359 -5.89283,-6.06988 -10.32532,-4.56328 l -49.26236,16.74421 z"
       id="path3886"
       inkscape:connector-curvature="0"
       sodipodi:nodetypes="cssssscc" />
    <path
       id="path3772"
       style="fill:#d17d6e;fill-opacity:1;stroke:none"
       d="m 101.52319,174.16342 c 13.98433,2.96569 19.68324,2.71068 21.49943,-11.12546 2.56891,-15.58931 -1.35441,-19.97812 -16.24591,-23.5154 -15.690934,-3.74598 -28.84959,-7.17302 -25.03802,14.16754 3.054157,14.29626 7.449336,16.65934 19.7845,20.47332 z M 28.057383,157.15589 c 13.377928,2.89132 16.659138,2.34879 22.139825,-9.37997 6.98872,-14.95599 -3.829542,-23.59174 -16.357377,-25.36734 -16.716329,-2.36923 -17.96601,2.11087 -19.930063,14.39491 -2.080596,13.01296 3.398516,18.02924 14.147615,20.3524 z M 4.7751858,134.04505 C 7.0865024,108.92989 18.30106,109.90546 34.694722,112.06571 c 12.564177,1.65563 21.791991,5.04938 33.679177,17.48709 15.626955,-4.47973 24.120552,-5.2612 42.830561,-0.67418 19.68336,4.51495 28.57015,9.51091 25.17217,34.77547 -1.73688,22.13941 -9.10663,24.7045 -35.56408,19.89333 -8.011073,-2.25002 -22.117401,-6.31792 -25.016658,-14.40649 -6.381851,-10.06132 -5.128897,-20.18059 -9.349752,-27.41491 -5.408704,5.39053 -7.73778,15.52788 -13.839316,20.88656 -7.487945,6.37651 -20.769189,3.66612 -28.890179,1.55176 C 3.1747374,158.8161 3.5292117,147.58402 4.7751858,134.04505 z"
       inkscape:connector-curvature="0"
       sodipodi:nodetypes="cccccssssssscccccccss" />
  </g>
  <g
     inkscape:groupmode="layer"
     id="layer3"
     inkscape:label="hat"
     style="display:inline">
    <path
       style="fill:url(#linearGradient3916);fill-opacity:1;stroke:none"
       d="m 102.0274,68.649143 c -0.87544,8.076927 3.39995,13.582515 9.82202,18.330493 19.63979,14.520144 43.26049,20.054204 70.14473,14.091964 6.13191,-1.359913 11.11324,-6.13137 12.6812,-12.528906 2.48843,-10.153214 2.93917,-16.414343 3.83666,-23.019682 l -89.6639,-21.456619 c -2.64018,6.517508 -5.65453,13.823381 -6.82071,24.58275 z"
       id="path3813"
       inkscape:connector-curvature="0"
       sodipodi:nodetypes="ssssccs" />
    <path
       style="fill:url(#linearGradient3958);fill-opacity:1;stroke:none"
       d="m 135.69452,2.9510078 c 15.40945,3.5771203 70.17207,24.9392822 100.88043,40.2915272 1.40222,0.701021 1.75809,2.153937 0.80384,3.014328 -14.59179,13.156575 -30.28135,27.199845 -47.02396,42.702994 -1.34202,1.242664 -3.7952,1.457963 -6.83254,0 C 150.09447,72.913939 118.59656,55.678193 71.790172,40.529638 67.179116,39.037302 68.5259,36.917789 69.780601,36.008145 86.613579,23.804417 106.03731,13.425138 126.65145,3.654351 c 3.33406,-1.5802939 6.17311,-1.3695687 9.04307,-0.7033432 z"
       id="path3811"
       inkscape:connector-curvature="0"
       sodipodi:nodetypes="sssssssss" />
    <path
       style="fill:none;stroke:#0d0c0e;stroke-width:0.99999994px;stroke-linecap:round;stroke-linejoin:miter;stroke-opacity:1"
       d="m 230.55512,81.762747 c -2.64574,4.827902 -3.74859,13.715741 -3.3393,20.390893"
       id="path3848"
       inkscape:connector-curvature="0"
       sodipodi:nodetypes="cc" />
    <path
       sodipodi:nodetypes="cc"
       inkscape:connector-curvature="0"
       id="path3850"
       d="m 233.06707,81.712511 c 2.22748,5.38053 2.33038,13.163122 2.23726,20.039219"
       style="fill:none;stroke:#0d0c0e;stroke-width:0.99999994px;stroke-linecap:round;stroke-linejoin:miter;stroke-opacity:1" />
    <path
       style="fill:none;stroke:#0d0c0e;stroke-width:0.99999994px;stroke-linecap:round;stroke-linejoin:miter;stroke-opacity:1"
       d="m 232.31349,82.164666 c 0.77053,3.571937 1.62702,13.514791 1.38319,20.139684"
       id="path3852"
       inkscape:connector-curvature="0"
       sodipodi:nodetypes="cc" />
    <path
       sodipodi:nodetypes="cc"
       inkscape:connector-curvature="0"
       id="path3854"
       d="m 231.158,82.114419 c -1.33953,5.280055 -2.79405,13.565038 -2.53549,20.139701"
       style="fill:none;stroke:#0d0c0e;stroke-width:0.99999994px;stroke-linecap:round;stroke-linejoin:miter;stroke-opacity:1" />
    <path
       sodipodi:nodetypes="cc"
       inkscape:connector-curvature="0"
       id="path3856"
       d="m 231.96181,82.164666 c 0.56957,4.124561 0.37105,13.414307 -0.0737,20.340644"
       style="fill:none;stroke:#0d0c0e;stroke-width:0.99999994px;stroke-linecap:round;stroke-linejoin:miter;stroke-opacity:1" />
    <path
       style="fill:none;stroke:#0d0c0e;stroke-width:0.99999994px;stroke-linecap:round;stroke-linejoin:miter;stroke-opacity:1"
       d="m 231.96181,82.164666 c -1.11625,6.330206 -1.98623,14.920399 -1.78183,20.139684"
       id="path3858"
       inkscape:connector-curvature="0"
       sodipodi:nodetypes="cc" />
    <path
       style="fill:none;stroke:#0d0c0e;stroke-width:1.99999988;stroke-linecap:butt;stroke-linejoin:miter;stroke-miterlimit:4;stroke-opacity:1;stroke-dasharray:none"
       d="m 232.1539,49.874055 0,28.455263"
       id="path3809"
       inkscape:connector-curvature="0"
       sodipodi:nodetypes="cc" />
    <path
       style="fill:none;stroke:#828b91;stroke-width:6;stroke-linecap:round;stroke-linejoin:miter;stroke-miterlimit:4;stroke-opacity:0.73059362;stroke-dasharray:none"
       d="m 73.1592,37.627592 c 37.31506,13.226897 70.31195,28.125333 100.74231,43.275862 8.02828,4.002316 15.8982,4.64851 22.62931,-1.574792 13.19632,-12.200741 25.67628,-22.860793 37.83493,-33.821375"
       id="path3918"
       inkscape:connector-curvature="0"
       sodipodi:nodetypes="ccsc" />
    <path
       sodipodi:type="arc"
       style="fill:#2b272f;fill-opacity:1;stroke:none"
       id="path3846"
       sodipodi:cx="209.41965"
       sodipodi:cy="104.14732"
       sodipodi:rx="2.2767856"
       sodipodi:ry="2.7901785"
       d="m 211.69643,104.14732 a 2.2767856,2.7901785 0 1 1 -4.55357,0 2.2767856,2.7901785 0 1 1 4.55357,0 z"
       transform="matrix(1.5326565,0,0,1.5326429,-89.015459,-80.653298)" />
  </g>
</svg>
